<?xml version="1.0" standalone="no"?>
<!DOCTYPE svg PUBLIC "-//W3C//DTD SVG 20010904//EN"
 "http://www.w3.org/TR/2001/REC-SVG-20010904/DTD/svg10.dtd">
<svg version="1.0" xmlns="http://www.w3.org/2000/svg"
 width="450.000000pt" height="450.000000pt" viewBox="0 0 450.000000 450.000000"
 preserveAspectRatio="xMidYMid meet">

<g transform="translate(0.000000,450.000000) scale(0.100000,-0.100000)"
fill="#000000" stroke="none">
<path d="M440 2250 l0 -190 40 0 40 0 1 128 0 127 65 -127 c64 -128 64 -128
100 -128 35 0 35 0 94 122 l59 122 3 -119 3 -120 53 -3 52 -3 0 190 0 191 -65
0 -65 0 -60 -120 c-33 -66 -62 -120 -65 -120 -3 0 -32 54 -65 120 l-60 120
-65 0 -65 0 0 -190z"/>
<path d="M980 2250 l0 -190 195 0 195 0 0 40 0 40 -140 0 -140 0 0 35 0 35
120 0 120 0 0 40 0 40 -120 0 -120 0 0 35 0 35 205 0 204 0 3 -147 3 -148 53
-3 52 -3 0 150 0 151 80 0 c47 0 80 -4 80 -10 0 -6 -29 -69 -65 -140 -36 -71
-65 -134 -65 -140 0 -5 17 -10 38 -10 34 0 40 4 55 35 l17 35 100 0 100 0 17
-35 c16 -34 19 -35 70 -35 29 0 53 5 53 10 0 6 -41 91 -90 190 l-90 180 -465
0 -465 0 0 -190z m898 25 c12 -25 22 -50 22 -55 0 -6 -22 -10 -50 -10 -27 0
-50 4 -50 10 0 14 43 100 50 100 3 0 16 -20 28 -45z"/>
<path d="M2072 2430 c-29 -12 -42 -48 -42 -115 0 -85 21 -125 66 -125 25 0 64
-39 64 -66 0 -27 12 -41 43 -53 35 -14 127 -14 161 -1 47 17 56 68 20 105 -11
11 -38 15 -100 15 -114 0 -124 10 -124 124 0 79 -2 86 -26 105 -30 23 -30 23
-62 11z"/>
<path d="M2370 2427 c-24 -12 -25 -17 -28 -109 -3 -104 7 -128 52 -128 27 0
66 -39 66 -66 0 -27 12 -41 43 -53 35 -14 127 -14 161 -1 47 17 56 68 20 105
-11 11 -38 15 -100 15 -114 0 -124 10 -124 124 0 79 -2 86 -26 105 -31 24 -31
25 -64 8z"/>
<path d="M2730 2272 c0 -220 -12 -207 195 -207 203 0 195 -6 195 167 0 106 3
128 15 128 12 0 15 -25 17 -147 l3 -148 53 -3 52 -3 0 75 0 76 90 0 89 0 3
-72 3 -73 53 -3 52 -3 0 74 c0 79 -14 107 -56 107 -13 1 -10 5 12 14 37 16 44
32 44 95 0 36 -5 53 -21 67 -20 18 -39 19 -268 19 l-246 0 -3 -147 -3 -148
-84 0 -84 0 -3 148 -3 147 -52 3 -53 3 0 -169z m710 53 l0 -35 -90 0 -90 0 0
35 0 35 90 0 90 0 0 -35z"/>
<path d="M3620 2431 c-43 -12 -51 -43 -48 -193 4 -183 -8 -173 199 -173 157 0
161 1 180 24 16 19 19 39 19 112 l0 89 -116 0 -115 0 3 -37 3 -38 58 -3 58 -3
-3 -32 -3 -32 -85 0 -85 0 0 105 0 105 87 3 c84 3 87 2 90 -20 3 -20 9 -23 53
-23 l50 0 3 36 c2 24 -3 43 -17 60 -19 23 -24 24 -163 26 -78 1 -154 -2 -168
-6z"/>
<path d="M3980 2430 c0 -5 5 -10 10 -10 6 0 10 -11 10 -25 0 -14 5 -25 10 -25
6 0 10 11 10 25 0 14 5 25 10 25 6 0 10 5 10 10 0 6 -13 10 -30 10 -16 0 -30
-4 -30 -10z"/>
<path d="M4051 2405 c0 -29 3 -35 8 -21 7 19 8 19 15 0 7 -19 8 -19 22 0 12
17 14 18 14 3 0 -9 5 -17 10 -17 13 0 13 57 1 65 -6 3 -15 -4 -21 -15 l-11
-21 -19 23 -19 23 0 -40z"/>
</g>
</svg>
